<?xml version="1.0" standalone="no"?><!DOCTYPE svg PUBLIC "-//W3C//DTD SVG 1.1//EN" "http://www.w3.org/Graphics/SVG/1.1/DTD/svg11.dtd"><svg t="1733388867963" class="icon" viewBox="0 0 1024 1024" version="1.1" xmlns="http://www.w3.org/2000/svg" p-id="2090" xmlns:xlink="http://www.w3.org/1999/xlink" width="360" height="360"><path d="M803.2 524.2c0 236.1-8.8 308.6-280.5 308.6s-295.2-72.5-295.2-308.6S251 214.6 522.7 214.6s280.5 73.5 280.5 309.6z" fill="#D3D3D3" p-id="2091"></path><path d="M522.7 839.2c-140.2 0-213.9-19.7-254.3-68-39.9-47.7-47.2-120.6-47.2-246.9 0-51.6 1-105.3 8-149 7-43.4 19.4-74.7 39.2-98.4 40.5-48.7 114.2-68.5 254.3-68.5 70.5 0 121.4 4.9 160.1 15.4 40.1 10.9 67.8 27.8 87.1 53.4 37 49 39.6 126 39.6 247.2 0 121-2.7 198-39.6 246.7-19.3 25.4-46.9 42.3-87.1 53-38.7 10.2-89.5 15.1-160.1 15.1z m0-618.3c-135.9 0-206.8 18.5-244.6 64-18.2 21.9-29.8 51.3-36.4 92.3-6.9 42.8-7.8 95.9-7.8 147 0 51 0.9 104.1 7.8 146.8 6.6 40.9 18.2 70.2 36.4 92 37.7 45.1 108.6 63.5 244.6 63.5 69.4 0 119.2-4.7 156.8-14.8 37.3-10 62.8-25.4 80.3-48.5 34.6-45.5 37.1-120.7 37.1-239 0-118.5-2.5-193.7-37.1-239.5-17.5-23.2-43-38.7-80.3-48.8-37.6-10.2-87.4-15-156.8-15z" fill="#91000A" p-id="2092"></path><path d="M806.3 509V507.3v1.7zM806.3 513.7v9.6s-1.5 38.1-15.8 76.1c10.2-30.7 15.5-60.4 15.8-85.7z" fill="#FF4A4A" p-id="2093"></path><path d="M806.3 513.5v0.1c-0.3 25.3-5.6 55-15.8 85.6-8.8 23.4-22.5 46.6-43.7 60.8-61 40.9-71.2 66.6-90.1 106-1.3 2.7-2.7 5.4-4.3 8.1-33.2 18.2-71.9 29.2-116.2 29.2-261.7 0-284.3-69.2-284.3-294.4 0-18.3-0.2-29.8 1-46.1 2.5-34.3 37.9-41.8 278.2-44.2 198.3-2 254.9-2.5 267.1-19.6 2.2-3.1 3.8-3.3 4.9-0.6 1.7 20.8 2.5 43.6 2.9 68.6 0.1 11.8 0.1 25 0.3 39.8v6.7z" fill="#FF2B3F" p-id="2094"></path><path d="M806 467.1c0.2 12.7 0.3 25.9 0.3 39.8-0.2-14.8-0.2-28-0.3-39.8z" fill="#C62020" p-id="2095"></path><path d="M803.1 398.5c2.6 6.4 2.7 29.2 2.9 68.6-0.4-25-1.2-47.9-2.9-68.6z" fill="#FF4A4A" p-id="2096"></path><path d="M803.1 398.5c-1.1-2.7-2.7-2.5-4.9 0.6-12.2 17.1-68.8 17.7-267.1 19.6-240.4 2.4-275.8 9.8-278.2 44.2-1.2 16.3-1 27.8-1 46.1 0 225.3 22.6 294.4 284.3 294.4 44.3 0 83-11 116.2-29.2-11.7 20.2-30.3 37.7-56.4 48-21.7 6.2-45 9.7-70.2 9.7-271.7 0-295.2-72.5-295.2-308.6 0-236.1 23.5-309.6 295.2-309.6 216.4-0.1 266.1 46.5 277.3 184.8z" fill="#D8000F" p-id="2097"></path><path d="M790.5 599.3c14.3-37.9 15.8-76.1 15.8-76.1 0 95.8-67.8 257.9-210.3 298.9 26-10.3 44.6-27.8 56.4-48 70.1-38.3 115.9-108.6 138.1-174.8z" fill="#D8000F" p-id="2098"></path><path d="M746.7 660.1c21.2-14.2 34.9-37.5 43.7-60.8-22.2 66.2-68 136.5-138.1 174.9 1.5-2.6 3-5.3 4.3-8.1 19-39.4 29.2-65.1 90.1-106z" fill="#D8000F" p-id="2099"></path><path d="M525.9 838.2c-140.2 0-213.9-19.7-254.3-68-39.9-47.7-47.2-120.6-47.2-246.9 0-51.6 1-105.3 8-149 7-43.4 19.4-74.7 39.2-98.4 40.5-48.7 114.2-68.5 254.3-68.5 112.3 0 177.9 12.5 219.2 41.8 39.4 27.9 58 71 64.3 148.9 1.6 19.1 2.5 41 2.9 69 0.2 11.8 0.3 24.8 0.3 39.9 0 1.2-0.4 2.4-1 3.4 0.6 1 1 2.1 1 3.4v9.6c0 53.9-19.7 118.7-52.6 173.3-28.3 46.9-79.4 107.9-162.3 131.8-22.8 6.4-47 9.7-71.8 9.7z m0-618.2c-135.9 0-206.8 18.5-244.6 64-18.2 21.9-29.8 51.3-36.4 92.3-6.9 42.8-7.8 95.9-7.8 147 0 51 0.9 104.1 7.8 146.8 6.6 40.9 18.2 70.2 36.4 92 37.7 45.1 108.6 63.5 244.6 63.5 23.7 0 46.7-3.2 68.4-9.4 78.9-22.7 127.8-81.1 154.9-126.1 31.3-52.1 50.8-116 50.8-166.9v-9.5c0-1.3 0.4-2.4 1-3.4-0.6-1-1-2.1-1-3.4 0-15-0.1-28-0.3-39.7-0.4-27.7-1.4-49.4-2.9-68.2-6-73.7-23.1-114.2-59-139.6-39.1-27.6-102.4-39.4-211.9-39.4z" fill="#91000A" p-id="2100"></path><path d="M806.3 519.9c-3.5 0-6.4-2.8-6.4-6.4v-6.2c0-3.5 2.8-6.4 6.3-6.4 3.5-0.1 6.4 2.8 6.4 6.3v6.3c0.1 3.5-2.8 6.4-6.3 6.4z" fill="#91000A" p-id="2101"></path><path d="M541.3 838.2c-3.5 0-6.4-2.8-6.4-6.4 0-3.5 2.8-6.4 6.4-6.4 19.2 0 36.8-3.1 52.4-9.3 22.8-9 41.2-24.7 53.2-45.3 1.4-2.5 2.8-5 4-7.6 0.9-1.8 1.7-3.7 2.6-5.4 17.5-36.7 30.1-63.2 89.7-103.1 17.3-11.6 31.2-31 41.3-57.8 13.8-36.4 15.4-73.7 15.4-74.1 0.1-3.5 3.1-6.2 6.6-6.1 3.5 0.1 6.2 3.1 6.1 6.6-0.1 1.6-1.7 39.6-16.3 78-11.1 29.3-26.6 50.8-46.1 63.9-56.7 38-68 61.9-85.3 98-0.9 1.8-1.7 3.6-2.6 5.5-1.4 2.9-2.9 5.8-4.5 8.5-13.4 23.1-34 40.6-59.5 50.7-17 6.9-36.2 10.3-57 10.3z" fill="#91000A" p-id="2102"></path><path d="M803.2 328.9v5.9c0 91.6-8.8 69.8-280.5 69.8s-295.2 21.9-295.2-69.8S251 214.6 522.7 214.6h4.8c-87.5 0.1-148 3.1-189.6 10.3v-0.2c-21.4 3.1-38.7 7.1-52.6 12v3.7c-33.3 16.9-38.4 43.2-38.4 82.3 0 82.5 22.7 62.8 285.3 62.8 255.8 0.1 270.4 18.8 271-56.6z" fill="#FFC500" p-id="2103"></path><path d="M527.5 214.6c261.1 0.3 275.2 27.8 275.7 114.2-0.6 75.4-15.1 56.7-271.1 56.7-262.6 0-285.3 19.7-285.3-62.8 0-39.1 5.1-65.4 38.4-82.3v36.7c0 11.3 9.1 20.4 20.4 20.4h11.8c11.3 0 20.4-9.1 20.4-20.4v-52.3c41.7-7 102.2-10.1 189.7-10.2z m205 62.6v-46.7c-14.9-3.7-33-6.5-54.8-8.7v55.5c0 11.3 9.1 20.4 20.4 20.4h14c11.2-0.1 20.4-9.2 20.4-20.5z" fill="#FFEB00" p-id="2104" data-spm-anchor-id="a313x.search_index.0.i1.42a13a81rq0iIH" class="selected"></path><path d="M732.5 230.4v46.7c0 11.3-9.1 20.4-20.4 20.4h-14c-11.3 0-20.4-9.1-20.4-20.4v-55.5c21.8 2.3 39.8 5.2 54.8 8.8zM337.9 224.9v52.3c0 11.3-9.1 20.4-20.4 20.4h-11.8c-11.3 0-20.4-9.1-20.4-20.4v-36.7c12.8-6.6 29.9-11.7 52.6-15.6z" fill="#FFC603" p-id="2105"></path><path d="M337.9 224.7v0.2c-22.6 3.9-39.7 9-52.6 15.5v-3.7c13.9-4.9 31.2-8.9 52.6-12z" fill="#FFC603" p-id="2106"></path><path d="M329.4 413.2c-52.4 0-78.5-3.3-93.2-17.7-9.5-9.3-15-22.2-15-60.7 0-42.2 3.7-78.9 49.4-100.2 40-18.7 113.1-26.3 252.1-26.3h4.8c132.6 0.2 201.7 7.5 238.3 25.5 40.1 19.6 43.4 51.8 43.7 95v6c0 30.7-0.9 50.3-13.5 62.6-17.7 17.4-54.8 16.7-144.6 15-34.2-0.6-76.8-1.5-128.7-1.5-51.4 0-94.5 0.8-129.1 1.4-24.9 0.5-46.1 0.9-64.2 0.9zM522.7 221c-137 0-208.5 7.3-246.8 25.1-35.7 16.7-42 41.9-42 88.7 0 25.8 1.8 42.5 11.2 51.6 16 15.7 57.4 14.9 148.3 13.2 34.7-0.6 77.8-1.4 129.3-1.4 52 0 94.7 0.8 129 1.5 83.5 1.6 121.6 2.3 135.4-11.3 9-8.9 9.7-26.1 9.7-53.6v-5.9c-0.1-22.2-1.2-38.7-6.2-52.1-5.3-14.2-14.6-23.9-30.4-31.6-34.8-17-102.2-24-232.8-24.2h-4.7z" fill="#91000A" p-id="2107"></path><path d="M732.5 210.8v58.3c0 11.3-9.1 20.4-20.4 20.4-11.3 0-20.4-9.1-20.4-20.4v-58.3c0-11.3 9.1-20.4 20.4-20.4 2.3 0 4.5 0.4 6.6 1.1-0.5-0.1-1-0.1-1.5-0.1-7.2 0-13 9.2-13 20.5V260c0 11.3 5.8 20.4 13 20.4s13-9.2 13-20.5v-48.2c0-7.7-2.7-14.5-6.8-17.9 1.1 0.7 2.2 1.6 3.1 2.6 3.7 3.6 6 8.7 6 14.4z" fill="#D3D3D3" p-id="2108"></path><path d="M730.2 211.7v48.2c0 11.3-5.8 20.4-13 20.5-7.2 0-13-9.1-13-20.4v-48.2c0-11.3 5.8-20.4 13-20.5 0.5 0 1 0 1.5 0.1 1.7 0.6 3.3 1.3 4.7 2.3 4 3.5 6.8 10.2 6.8 18z" fill="#FFFFFF" p-id="2109"></path><path d="M340.9 210.8v58.3c0 11.3-9.1 20.4-20.4 20.4s-20.4-9.1-20.4-20.4v-58.3c0-11.3 9.1-20.4 20.4-20.4 2.3 0 4.5 0.4 6.6 1.1-0.5-0.1-1-0.1-1.5-0.1-7.2 0-13 9.2-13 20.5V260c0 11.3 5.8 20.4 13 20.4s13-9.2 13-20.5v-48.2c0-7.7-2.7-14.5-6.8-17.9 1.1 0.7 2.2 1.6 3.1 2.6 3.7 3.6 6 8.7 6 14.4z" fill="#D3D3D3" p-id="2110"></path><path d="M338.6 211.7v48.2c0 11.3-5.8 20.4-13 20.5-7.2 0-13-9.1-13-20.4v-48.2c0-11.3 5.8-20.4 13-20.5 0.5 0 1 0 1.5 0.1 1.7 0.6 3.3 1.3 4.7 2.3 4 3.5 6.8 10.2 6.8 18z" fill="#FFFFFF" p-id="2111"></path><path d="M712.1 295.8c-14.8 0-26.8-12-26.8-26.8v-58.3c0-14.8 12-26.8 26.8-26.8 3 0 5.9 0.5 8.6 1.4 2.2 0.7 4.2 1.8 6.2 3 0.1 0 0.1 0.1 0.2 0.1 1.4 1 2.7 2 3.9 3.2 5.1 5.1 7.8 11.8 7.8 18.9v58.3c0 15-12 27-26.7 27z m0-99.1c-7.8 0-14.1 6.3-14.1 14.1v58.3c0 7.8 6.3 14.1 14.1 14.1s14.1-6.3 14.1-14.1v-58.3c0-3.8-1.5-7.3-4.1-9.9-0.7-0.7-1.4-1.2-2.2-1.8l-0.1-0.1c-1-0.6-2-1.1-3.1-1.5-1.6-0.6-3.1-0.8-4.6-0.8zM320.5 295.8c-14.8 0-26.8-12-26.8-26.8v-58.3c0-14.8 12-26.8 26.8-26.8 3 0 5.9 0.5 8.6 1.4 2.2 0.7 4.2 1.8 6.2 3 0.1 0 0.1 0.1 0.2 0.1 1.4 1 2.7 2 3.9 3.2 5.1 5.1 7.8 11.8 7.8 18.9v58.3c0.1 15-12 27-26.7 27z m0-99.1c-7.8 0-14.1 6.3-14.1 14.1v58.3c0 7.8 6.3 14.1 14.1 14.1s14.1-6.3 14.1-14.1v-58.3c0-3.8-1.5-7.3-4.1-9.9-0.7-0.7-1.4-1.2-2.2-1.8l-0.1-0.1c-1-0.6-2-1.1-3.1-1.5-1.5-0.6-3.1-0.8-4.6-0.8z" fill="#91000A" p-id="2112"></path><path d="M723.4 200.1c-1.7 0-3.3-0.7-4.5-1.8-1.2-1.2-1.9-2.8-1.9-4.5 0-3.5 2.8-6.4 6.4-6.4 3.5 0 6.4 2.9 6.4 6.4s-2.9 6.3-6.4 6.3z" fill="#91000A" p-id="2113"></path><path d="M476 323.2c9 1 19.8 12.9 12.1 15.8-7.7 2.9-53.8 18.7-61.2 20.3-7.4 1.6-14.5 0.6-19.2-3.9-4.6-4.5-6.8-9.7-3.1-9.4 3.7 0.3 15.1-2.7 21.6-8.1 7-5.8 21.9-17.1 21.6-30.3-0.3-13.2-9.6-17.4-16.7-18.1-7.1-0.6-26.3 3.9-29.1 4.5-9.4 2.2-13.3-5.2-12.4-12.3 0.9-7.1 5.3-8.2 12.4-11 10.5-4.1 29.2-9.5 44.1-2.1 14.8 7.4 23.6 20.4 21.1 38.5-1.5 11.6-7.4 17.6-9.4 19.7-0.4 0.4-0.1 1.1 0.5 1 0.1 0.3 12.4-5.1 17.7-4.6z" fill="#91000A" p-id="2114"></path><path d="M420.3 360.6c-5.3 0-9.8-1.6-13.1-4.8-3.2-3.1-5.9-7.2-4.9-9.2 0.2-0.5 0.8-1.1 2.3-1 3.7 0.3 15-2.7 21.3-7.9l1.5-1.2c7.6-6.2 20.2-16.6 20-28.7-0.3-14.5-11.4-17.1-16.2-17.5-4.4-0.4-14.9 1.2-28.7 4.5h-0.2c-5 1.2-8-0.4-9.7-1.9-2.6-2.4-3.9-6.5-3.3-10.9 0.9-6.9 5-8.5 11.2-10.8l1.5-0.6c12.5-4.8 30.4-9.1 44.5-2.1 16.1 8.1 23.7 21.9 21.4 39.1-1.5 11.4-7.2 17.5-9.3 19.8l-0.2 0.2v0.1c1.5-0.6 12.6-5.4 17.7-4.9 6.4 0.7 14.5 7.3 15.1 12.3 0.3 2.1-0.8 3.7-2.9 4.5-7.7 2.9-53.9 18.7-61.3 20.3-2.4 0.5-4.6 0.7-6.7 0.7z m-16.1-14c-0.5 0-0.8 0.1-0.9 0.4-0.5 1.1 1.1 4.5 4.7 8 4.2 4.1 10.9 5.4 18.7 3.7 7.4-1.6 53.5-17.4 61.1-20.3 1.7-0.6 2.5-1.8 2.3-3.4-0.5-4.2-7.8-10.7-14.2-11.4-5-0.5-17.2 4.8-17.3 4.9h-0.2c-0.5 0.1-0.9-0.2-1.1-0.6-0.2-0.4-0.1-0.9 0.2-1.3l0.2-0.2c2.1-2.2 7.6-8.1 9-19.2 2.2-16.7-5.2-30.2-20.9-38-13.8-6.9-31.3-2.7-43.6 2.1l-1.5 0.6c-6.1 2.3-9.7 3.7-10.5 10-0.5 4.1 0.6 7.9 3 10 2.1 1.9 5.1 2.5 8.8 1.7h0.2c8.2-1.9 22.9-5 29.1-4.5 3.9 0.4 16.8 2.8 17.2 18.6 0.3 12.6-12.6 23.2-20.3 29.5l-1.5 1.2c-6.7 5.6-18.2 8.5-22 8.2-0.3 0.1-0.4 0-0.5 0z" fill="#91000A" p-id="2115"></path><path d="M502.5 264.9c15.4 0 27.8 13.1 27.8 29.3 0 16.2-12.5 29.3-27.8 29.3s-27.8-13.1-27.8-29.3c0-16.2 12.5-29.3 27.8-29.3z m10.5 32.5c0-8.4-6.4-15.2-14.4-15.2-7.9 0-14.4 6.8-14.4 15.2s6.4 15.2 14.4 15.2 14.4-6.8 14.4-15.2z" fill="#91000A" p-id="2116"></path><path d="M502.5 324.1c-15.6 0-28.3-13.4-28.3-29.9s12.7-29.9 28.3-29.9c15.6 0 28.3 13.4 28.3 29.9 0.1 16.5-12.6 29.9-28.3 29.9z m0-58.7c-15 0-27.3 12.9-27.3 28.8s12.2 28.8 27.3 28.8c15 0 27.3-12.9 27.3-28.8s-12.2-28.8-27.3-28.8z" fill="#91000A" p-id="2117"></path><path d="M498.7 313.1c-8.2 0-14.9-7-14.9-15.7s6.7-15.7 14.9-15.7 14.9 7 14.9 15.7-6.7 15.7-14.9 15.7z m0-30.3c-7.6 0-13.8 6.6-13.8 14.6s6.2 14.6 13.8 14.6 13.8-6.6 13.8-14.6-6.2-14.6-13.8-14.6z" fill="#91000A" p-id="2118"></path><path d="M559.2 275.2c5.6 11.6 1.2 9.4-1.2 9.7-2.5 0.3-3.4 0.6-4 10-0.6 9.4-5.6 35.2-12.1 41.9-6.5 6.8-24.1 6.5-21.6-3.9 2.5-10.3 11.7-2.6 15.5-23.5 3.7-21 3.4-32.6 3.7-35.2 0.5-5.8 14.1-10.6 19.7 1z" fill="#91000A" p-id="2119"></path><path d="M529.6 341.9c-2.4 0-4.7-0.5-6.6-1.5-2.9-1.6-4.1-4.3-3.3-7.6 1.1-4.4 3.4-5.7 5.8-7.1 3.5-2 7.5-4.2 9.6-16.4 3-16.8 3.4-27.4 3.6-32.5 0-1.2 0.1-2.1 0.1-2.6 0.3-2.9 3.7-5.7 7.8-6.4 5.5-0.9 10.3 1.8 13 7.2 3.2 6.7 3 8.6 2.4 9.5-0.6 1-1.8 0.9-2.9 0.9h-1.2c-2.1 0.3-3 0.4-3.6 9.5-0.6 9.5-5.5 35.3-12.2 42.3-2.7 3-7.9 4.7-12.5 4.7z m19.2-73.3c-0.6 0-1.3 0.1-1.9 0.2-3.7 0.6-6.7 3-7 5.5-0.1 0.5-0.1 1.4-0.1 2.5-0.2 5.1-0.6 15.8-3.6 32.6-2.2 12.7-6.6 15.1-10.1 17.1-2.4 1.4-4.4 2.5-5.3 6.4-0.9 3.6 1 5.5 2.7 6.5 4.9 2.7 14 1.1 18-3.1 6.4-6.7 11.3-32.5 11.9-41.6 0.6-9 1.4-10.1 4.5-10.5 0.4-0.1 0.9 0 1.3 0 0.9 0 1.7 0 2-0.4 0.4-0.6 0.3-2.6-2.5-8.5-2.1-4.2-5.7-6.7-9.9-6.7z" fill="#91000A" p-id="2120"></path><path d="M618.9 310.4c6.4 6.5 10.5 15.2 10.2 24.4-0.5 19.1-17.5 33.4-40.1 28.6-20.3-4.4-36.1-17.8-34.6-35.6 0.9-10.1 7.1-18.7 16.2-23.8 4.6-2.6 5.6-5.5 3.3-10.4-1-2.2-2-4.7-2.7-7.5-0.5-2.2-2.7-12.3 5.6-10.3 5.3 1.3 4.1 6.5 5.3 10.5 1.8 5.8 5.4 10.6 12 11.2 7.6 0.7 15.9-5.2 17.2-13.5 1.8-10.7-8.9-19.8-19-15.8-3 1.2-10.5 5-14 0.3-8.5-11.2-10.7-13.9-4.6-12.5 4.9 1.1 9.8-1 16.9-4.2 21.5-9.8 41.5 11.4 38 31.2-1.2 6.6-5.4 12.5-9.8 16.9-2.7 2.8-2.7 7.6 0.1 10.5zM586.4 343c11.3 3.3 19.5-3.7 19.5-13.9 0-8.6-6.8-16.3-16.8-17.3-10-0.9-18 5.3-18.8 13.9-0.8 8.7 6.4 14.5 16.1 17.3z" fill="#91000A" p-id="2121"></path><path d="M597.8 364.8c-2.9 0-5.8-0.3-8.8-1-22.4-4.8-36.4-19.3-35-36.1 0.9-10 6.9-18.8 16.5-24.2 4.4-2.5 5.3-5.1 3.1-9.8-1.1-2.4-2-4.9-2.7-7.6-0.5-2.2-1.5-7.6 0.9-10 1.2-1.2 3-1.5 5.4-0.9 4.2 1 4.6 4.4 5.1 7.6 0.1 1.1 0.3 2.3 0.6 3.3 1.4 4.6 4.5 10.1 11.5 10.8 7.6 0.7 15.4-5.4 16.7-13.1 0.8-4.9-1.2-10-5.2-13.2-3.8-3.1-8.7-3.8-13.1-2-0.3 0.1-0.6 0.2-0.9 0.4-3.6 1.5-10.3 4.3-13.7-0.2l-0.9-1.2c-5.8-7.6-8-10.5-7.1-11.9 0.5-0.8 2-0.7 4-0.3 4.6 1.1 9.3-0.9 16.5-4.2 9.3-4.2 19.2-3.1 27.3 3.2 8.7 6.8 13.3 18.3 11.4 28.7-1.3 7.3-6.1 13.4-9.9 17.2-2.7 2.7-2.7 7.2-0.1 9.8 6.9 7 10.6 15.8 10.4 24.8-0.3 9.3-4.5 17.8-11.5 23.3-5.8 4.3-12.8 6.6-20.5 6.6zM575 276c-1.1 0-1.9 0.3-2.5 0.9-2.1 2.1-1 7.4-0.6 9 0.6 2.6 1.5 5.1 2.6 7.4 2.5 5.1 1.5 8.4-3.5 11.1-9.3 5.2-15.1 13.7-16 23.3-1.2 13.5 8.9 29.6 34.2 35 10.7 2.3 20.8 0.3 28.3-5.6 6.8-5.3 10.8-13.5 11.1-22.5 0.2-8.7-3.3-17.2-10.1-24-3.1-3.1-3-8.2 0.1-11.3 3.7-3.7 8.4-9.6 9.6-16.6 1.8-10-2.6-21.1-11.1-27.6-7.7-6-17.3-7.1-26.2-3-7.4 3.4-12.2 5.4-17.2 4.3-2.5-0.6-2.8-0.3-2.8-0.2-0.5 0.7 2.8 5.1 7 10.7l0.9 1.2c3 3.9 9.1 1.3 12.5-0.1 0.3-0.1 0.6-0.3 0.9-0.4 4.7-1.9 10-1.1 14.1 2.2 4.3 3.4 6.4 8.9 5.5 14.2-1.4 8.4-9.5 14.8-17.8 14-7.6-0.7-11-6.7-12.4-11.5-0.3-1.1-0.5-2.3-0.6-3.5-0.4-3.1-0.8-5.9-4.3-6.7-0.5-0.2-1.2-0.3-1.7-0.3z" fill="#91000A" p-id="2122"></path><path d="M591.8 344.4c-1.8 0-3.7-0.3-5.6-0.8-11.2-3.3-17.2-9.7-16.5-17.8 0.3-4 2.3-7.7 5.5-10.4 3.7-3.1 8.6-4.5 13.9-4 9.8 0.9 17.3 8.6 17.3 17.8 0 5.1-2.1 9.7-5.7 12.4-2.5 1.8-5.6 2.8-8.9 2.8z m-4.8-32.1c-4.3 0-8.2 1.3-11.2 3.8s-4.8 5.9-5.1 9.7c-0.7 7.5 5.1 13.6 15.7 16.7 5.2 1.5 10 0.9 13.5-1.8 3.4-2.5 5.3-6.8 5.3-11.6 0-8.7-7-15.9-16.3-16.8H587z" fill="#91000A" p-id="2123"></path><path d="M445.5 505c-14.4 6.1-25.4 20-35.7 31.4-11.1 12.3-22.3 24.6-32.3 37.8 9.8 4.1 19.5 8.2 29.3 12.4 1.7-4.4 1.7-8.8 0.8-13.4-1.9-9.7-12.8-11.5-20.3-8.3-4.4 1.9-7.1 5.5-9.8 9.3-4.5 6.5-1.8 16.3 4.1 20.7 5.9 4.4 15.9 5 21.1-1.3 10.1-12.3 19.4-25.3 29.5-37.7 10.1-12.4 22.3-24.6 27.7-39.9 1.3-3.6-0.6-8.1-3.5-10.3-3.4-2.5-7.1-2.3-10.9-0.7z" fill="#FFFFFF" p-id="2124"></path><path d="M384 534.3c9.4 1.3 19.1 1.7 27.7 5.6 8.7 3.9 17 10.8 22.3 17.8 12.2 16.4 16.4 38.3 16.6 58.2 0.1 11.2-0.9 22.2-5.3 32.6-1.4 3.4-4.3 8.3-6.4 10.6-0.9 1-1.9 2-2.9 2.9-0.3 0.2-2.9 2.2-1.5 1.3-2.7 1.8-3.5 2.3-5.7 3-1.2 0.4-2.4 0.8-3.7 0.9 2.2-0.2-0.4-0.1-0.7-0.1-4.8-0.2 2.3 0.5-2-0.2-0.4-0.1-2.6-0.9-0.5 0-1.1-0.5-2.1-1.1-3.1-1.7-2-1.3 1.9 2.2-1-0.9-2.3-2.5-1.7-1.4-3.5-4.7-1.2-2.2 0.6 2.8-0.6-1.4-0.3-1-0.6-1.9-0.8-2.9 0.5 2.6-0.1-2-0.1-2.2 0-0.2 0.3-2.6 0-0.9 0.8-5.1 3.3-8.6 6.4-13.2 0.6-0.9 4-5.4 2.1-3 1.5-1.9 3.1-3.7 4.8-5.5 1.5-1.6 3.2-3.1 4.8-4.6 0.5-0.5 2.7-2.1 0.4-0.4 1-0.8 2-1.5 3.1-2.2 2.2-1.5 4.5-2.8 6.8-4 0.8-0.4 1.6-0.8 2.5-1.2 0.3-0.1 4-1.7 1.8-0.8 6.1-2.5 12.4-4.7 18.7-6.6 7-2.1 11.5-9.5 9.5-16.7-2.1-7.7-9.5-10.7-16.7-9.5-25.8 4.3-47.2 17.4-62.1 39-8.4 12.2-13.6 26.3-9.6 41.1 3.9 14.4 15.8 27.3 30.6 30.5 15.9 3.4 32.4-3.6 43.1-15.4 11-12.2 16-27.8 18-43.8 3.5-27.4-1.6-58-15-82.3-7.6-13.8-19.5-26.1-33.8-33-14.1-6.8-32.4-10.9-46.7-2.3-5.5 3.3-5.5 14.9 2.5 16zM512.4 474.6c-24 16-37.8 46.2-43.7 73.6-1.7 8.1 2.4 16.7 10.8 19 7.2 2 17.8-2.5 19-10.8 1.7-11.8 5-24.5 9.6-34.7 5.2-11.5 12.3-22.1 18.3-33.2 4.6-8.4-5-19.8-14-13.9z" fill="#FFFFFF" p-id="2125" data-spm-anchor-id="a313x.search_index.0.i2.42a13a81rq0iIH" class="selected"></path><path d="M498.4 532.9c9.2-3.3 17.1-8.4 26.3-11.1 9.7-2.9 17.1-4.2 26.7-4 17.5 0.4 32.7 8 45 21.4 12.4 13.5 16.8 29.4 17.5 47.4 0.8 20.1-1.2 41.2-11.8 58.5-5.5 8.9-13.7 17.2-22.5 22.5-4.4 2.7-8.7 4.4-13.3 5.1-1.3 0.2-4.9 0.4-7.1 0.3-3.2-0.1-6.4 0.6-8.6 0.5-9.5-0.3-14.7 12.3-7.8 18.9 5.8 5.5 11.5 8.4 19.7 9 6.7 0.5 13.9-0.9 20.1-3.2 12.7-4.9 23.8-13.4 32.9-23.5 18.8-20.7 26.2-48 27.2-75.5 0.9-24.7-2.6-49.6-17.4-70.2-15.1-21.1-36.7-35.3-62.7-38.6-13.3-1.7-27.7-0.5-40.5 3.7-13.4 4.4-27.5 11.1-36.1 22.7-5.5 7.7 3.8 19.2 12.4 16.1z" fill="#FFFFFF" p-id="2126"></path><path d="M523.2 578.3c6.1-4.1 15.7-7.2 23.1-7 3.5 0.1 5.7 0.9 8.4 2.6 1.7 1.1 3.7 3.1 4.8 4.7 4.4 6.4 5.1 14.6 3.9 21.3-0.7 4-2.1 8.7-3.5 10.9-1.4 2.3-1.2 2.4-2.5 3.8-0.7 0.8-1.5 1.5-2.3 2.2 1-0.7 1-0.7 0.2-0.1-0.5 0.3-4.8 2.7-2.2 1.5-1.8 0.8-3.8 1.2-5.7 1.7 3.1-0.7-2.4 0.1-3.3 0.1-1 0-2-0.1-3-0.2 1.8 0.2 1.7 0.2-0.2-0.2-0.6-0.2-6.1-2.3-3.2-0.9-1.9-0.9-3.7-1.9-5.4-3.1 2.3 1.7-2.1-2.2-2.5-2.6-1.2-1.4-1.4-1.6-0.4-0.4-0.5-0.6-0.9-1.3-1.3-1.9-1-1.5-1.9-3.1-2.6-4.8 1.1 2.7-0.7-3-0.9-3.5-0.3-1.9-0.4-2-0.2-0.3-0.1-1.1-0.2-2.2-0.2-3.2v-3.4c0.2-2 0.2-2.2 0-0.7 1.1-7.7 4.5-14.5 9.4-19.9 5.5-6 6-15.4 0-21.3-6.1-6.1-15.2-5.4-21.3 0-16.8 14.7-24.7 38.9-17.9 60.5 6.7 21.2 24.9 37 47.5 37.9 22.8 0.9 41.5-14.3 48.3-35.6 6.7-20.9 3-47.1-14.7-61.6-10.3-8.4-22.4-11.7-35.5-9.3-11.7 2.1-25.2 7.8-30.9 18.8-4.6 8.4 5 20.2 14.1 14z" fill="#FFFFFF" p-id="2127"></path><path d="M645.1 494.9c-0.4 0.9-0.3 0.6 0 0 0.4-0.7 0.7-1.3 1.1-2 0.6-1.1 1.2-2.3 1.9-3.4 1.6-2.7 3.2-5.2 4-8.4 1.5-6.3-4.2-13-10.9-10.9-8.5 2.7-13.2 11.2-14.5 19.6-0.8 4.9 1.3 10.6 6.7 11.8 5.4 1.2 9.7-1.7 11.7-6.7z" fill="#FFFFFF" p-id="2128"></path><path d="M663.5 512.4c0.6-0.5 1.1-1 1.7-1.5 0.5-0.4 0.5-0.4-0.1 0 0.2-0.2 0.5-0.4 0.7-0.5 1.2-0.9 2.5-1.7 3.8-2.5 1.4-0.8 2.8-1.6 4.1-2.6 2.3-1.8 3.3-3.6 4.3-6.3 1.5-4.2-1.7-8-5.3-9.4-7.9-3.1-16.8 4.9-22.1 10.1-3.4 3.3-3.6 9.5 0 12.8 3.9 3.3 9.1 3.3 12.9-0.1z" fill="#FFFFFF" p-id="2129"></path></svg>